<?xml version="1.0" encoding="utf-8" standalone="no"?>
<!DOCTYPE svg PUBLIC "-//W3C//DTD SVG 1.1//EN"
  "http://www.w3.org/Graphics/SVG/1.1/DTD/svg11.dtd">
<svg xmlns:xlink="http://www.w3.org/1999/xlink" width="460.8pt" height="345.6pt" viewBox="0 0 460.8 345.6" xmlns="http://www.w3.org/2000/svg" version="1.1">
 <metadata>
  <rdf:RDF xmlns:dc="http://purl.org/dc/elements/1.1/" xmlns:cc="http://creativecommons.org/ns#" xmlns:rdf="http://www.w3.org/1999/02/22-rdf-syntax-ns#">
   <cc:Work>
    <dc:type rdf:resource="http://purl.org/dc/dcmitype/StillImage"/>
    <dc:date>2023-10-01T08:49:35.392352</dc:date>
    <dc:format>image/svg+xml</dc:format>
    <dc:creator>
     <cc:Agent>
      <dc:title>Matplotlib v3.8.0, https://matplotlib.org/</dc:title>
     </cc:Agent>
    </dc:creator>
   </cc:Work>
  </rdf:RDF>
 </metadata>
 <defs>
  <style type="text/css">*{stroke-linejoin: round; stroke-linecap: butt}</style>
 </defs>
 <g id="figure_1">
  <g id="patch_1">
   <path d="M 0 345.6 
L 460.8 345.6 
L 460.8 0 
L 0 0 
z
" style="fill: #ffffff"/>
  </g>
  <g id="axes_1">
   <g id="patch_2">
    <path d="M 57.6 307.584 
L 414.72 307.584 
L 414.72 41.472 
L 57.6 41.472 
z
" style="fill: #ffffff"/>
   </g>
   <g id="matplotlib.axis_1">
    <g id="xtick_1">
     <g id="line2d_1">
      <defs>
       <path id="mb5808449df" d="M 0 0 
L 0 3.5 
" style="stroke: #000000; stroke-width: 0.8"/>
      </defs>
      <g>
       <use xlink:href="#mb5808449df" x="73.832727" y="307.584" style="stroke: #000000; stroke-width: 0.8"/>
      </g>
     </g>
     <g id="text_1">
      <!-- 4 | 16 -->
      <g transform="translate(59.426477 322.226187) scale(0.1 -0.1)">
       <defs>
        <path id="DejaVuSans-34" d="M 2419 4116 
L 825 1625 
L 2419 1625 
L 2419 4116 
z
M 2253 4666 
L 3047 4666 
L 3047 1625 
L 3713 1625 
L 3713 1100 
L 3047 1100 
L 3047 0 
L 2419 0 
L 2419 1100 
L 313 1100 
L 313 1709 
L 2253 4666 
z
" transform="scale(0.015625)"/>
        <path id="DejaVuSans-20" transform="scale(0.015625)"/>
        <path id="DejaVuSans-7c" d="M 1344 4891 
L 1344 -1509 
L 813 -1509 
L 813 4891 
L 1344 4891 
z
" transform="scale(0.015625)"/>
        <path id="DejaVuSans-31" d="M 794 531 
L 1825 531 
L 1825 4091 
L 703 3866 
L 703 4441 
L 1819 4666 
L 2450 4666 
L 2450 531 
L 3481 531 
L 3481 0 
L 794 0 
L 794 531 
z
" transform="scale(0.015625)"/>
        <path id="DejaVuSans-36" d="M 2113 2584 
Q 1688 2584 1439 2293 
Q 1191 2003 1191 1497 
Q 1191 994 1439 701 
Q 1688 409 2113 409 
Q 2538 409 2786 701 
Q 3034 994 3034 1497 
Q 3034 2003 2786 2293 
Q 2538 2584 2113 2584 
z
M 3366 4563 
L 3366 3988 
Q 3128 4100 2886 4159 
Q 2644 4219 2406 4219 
Q 1781 4219 1451 3797 
Q 1122 3375 1075 2522 
Q 1259 2794 1537 2939 
Q 1816 3084 2150 3084 
Q 2853 3084 3261 2657 
Q 3669 2231 3669 1497 
Q 3669 778 3244 343 
Q 2819 -91 2113 -91 
Q 1303 -91 875 529 
Q 447 1150 447 2328 
Q 447 3434 972 4092 
Q 1497 4750 2381 4750 
Q 2619 4750 2861 4703 
Q 3103 4656 3366 4563 
z
" transform="scale(0.015625)"/>
       </defs>
       <use xlink:href="#DejaVuSans-34"/>
       <use xlink:href="#DejaVuSans-20" x="63.623047"/>
       <use xlink:href="#DejaVuSans-7c" x="95.410156"/>
       <use xlink:href="#DejaVuSans-20" x="129.101562"/>
       <use xlink:href="#DejaVuSans-31" x="160.888672"/>
       <use xlink:href="#DejaVuSans-36" x="224.511719"/>
      </g>
     </g>
    </g>
    <g id="xtick_2">
     <g id="line2d_2">
      <g>
       <use xlink:href="#mb5808449df" x="154.996364" y="307.584" style="stroke: #000000; stroke-width: 0.8"/>
      </g>
     </g>
     <g id="text_2">
      <!-- 8 | 32 -->
      <g transform="translate(140.590114 322.226187) scale(0.1 -0.1)">
       <defs>
        <path id="DejaVuSans-38" d="M 2034 2216 
Q 1584 2216 1326 1975 
Q 1069 1734 1069 1313 
Q 1069 891 1326 650 
Q 1584 409 2034 409 
Q 2484 409 2743 651 
Q 3003 894 3003 1313 
Q 3003 1734 2745 1975 
Q 2488 2216 2034 2216 
z
M 1403 2484 
Q 997 2584 770 2862 
Q 544 3141 544 3541 
Q 544 4100 942 4425 
Q 1341 4750 2034 4750 
Q 2731 4750 3128 4425 
Q 3525 4100 3525 3541 
Q 3525 3141 3298 2862 
Q 3072 2584 2669 2484 
Q 3125 2378 3379 2068 
Q 3634 1759 3634 1313 
Q 3634 634 3220 271 
Q 2806 -91 2034 -91 
Q 1263 -91 848 271 
Q 434 634 434 1313 
Q 434 1759 690 2068 
Q 947 2378 1403 2484 
z
M 1172 3481 
Q 1172 3119 1398 2916 
Q 1625 2713 2034 2713 
Q 2441 2713 2670 2916 
Q 2900 3119 2900 3481 
Q 2900 3844 2670 4047 
Q 2441 4250 2034 4250 
Q 1625 4250 1398 4047 
Q 1172 3844 1172 3481 
z
" transform="scale(0.015625)"/>
        <path id="DejaVuSans-33" d="M 2597 2516 
Q 3050 2419 3304 2112 
Q 3559 1806 3559 1356 
Q 3559 666 3084 287 
Q 2609 -91 1734 -91 
Q 1441 -91 1130 -33 
Q 819 25 488 141 
L 488 750 
Q 750 597 1062 519 
Q 1375 441 1716 441 
Q 2309 441 2620 675 
Q 2931 909 2931 1356 
Q 2931 1769 2642 2001 
Q 2353 2234 1838 2234 
L 1294 2234 
L 1294 2753 
L 1863 2753 
Q 2328 2753 2575 2939 
Q 2822 3125 2822 3475 
Q 2822 3834 2567 4026 
Q 2313 4219 1838 4219 
Q 1578 4219 1281 4162 
Q 984 4106 628 3988 
L 628 4550 
Q 988 4650 1302 4700 
Q 1616 4750 1894 4750 
Q 2613 4750 3031 4423 
Q 3450 4097 3450 3541 
Q 3450 3153 3228 2886 
Q 3006 2619 2597 2516 
z
" transform="scale(0.015625)"/>
        <path id="DejaVuSans-32" d="M 1228 531 
L 3431 531 
L 3431 0 
L 469 0 
L 469 531 
Q 828 903 1448 1529 
Q 2069 2156 2228 2338 
Q 2531 2678 2651 2914 
Q 2772 3150 2772 3378 
Q 2772 3750 2511 3984 
Q 2250 4219 1831 4219 
Q 1534 4219 1204 4116 
Q 875 4013 500 3803 
L 500 4441 
Q 881 4594 1212 4672 
Q 1544 4750 1819 4750 
Q 2544 4750 2975 4387 
Q 3406 4025 3406 3419 
Q 3406 3131 3298 2873 
Q 3191 2616 2906 2266 
Q 2828 2175 2409 1742 
Q 1991 1309 1228 531 
z
" transform="scale(0.015625)"/>
       </defs>
       <use xlink:href="#DejaVuSans-38"/>
       <use xlink:href="#DejaVuSans-20" x="63.623047"/>
       <use xlink:href="#DejaVuSans-7c" x="95.410156"/>
       <use xlink:href="#DejaVuSans-20" x="129.101562"/>
       <use xlink:href="#DejaVuSans-33" x="160.888672"/>
       <use xlink:href="#DejaVuSans-32" x="224.511719"/>
      </g>
     </g>
    </g>
    <g id="xtick_3">
     <g id="line2d_3">
      <g>
       <use xlink:href="#mb5808449df" x="236.16" y="307.584" style="stroke: #000000; stroke-width: 0.8"/>
      </g>
     </g>
     <g id="text_3">
      <!-- 16 | 64 -->
      <g transform="translate(218.5725 322.226187) scale(0.1 -0.1)">
       <use xlink:href="#DejaVuSans-31"/>
       <use xlink:href="#DejaVuSans-36" x="63.623047"/>
       <use xlink:href="#DejaVuSans-20" x="127.246094"/>
       <use xlink:href="#DejaVuSans-7c" x="159.033203"/>
       <use xlink:href="#DejaVuSans-20" x="192.724609"/>
       <use xlink:href="#DejaVuSans-36" x="224.511719"/>
       <use xlink:href="#DejaVuSans-34" x="288.134766"/>
      </g>
     </g>
    </g>
    <g id="xtick_4">
     <g id="line2d_4">
      <g>
       <use xlink:href="#mb5808449df" x="317.323636" y="307.584" style="stroke: #000000; stroke-width: 0.8"/>
      </g>
     </g>
     <g id="text_4">
      <!-- 32 | 128 -->
      <g transform="translate(296.554886 322.226187) scale(0.1 -0.1)">
       <use xlink:href="#DejaVuSans-33"/>
       <use xlink:href="#DejaVuSans-32" x="63.623047"/>
       <use xlink:href="#DejaVuSans-20" x="127.246094"/>
       <use xlink:href="#DejaVuSans-7c" x="159.033203"/>
       <use xlink:href="#DejaVuSans-20" x="192.724609"/>
       <use xlink:href="#DejaVuSans-31" x="224.511719"/>
       <use xlink:href="#DejaVuSans-32" x="288.134766"/>
       <use xlink:href="#DejaVuSans-38" x="351.757812"/>
      </g>
     </g>
    </g>
    <g id="xtick_5">
     <g id="line2d_5">
      <g>
       <use xlink:href="#mb5808449df" x="398.487273" y="307.584" style="stroke: #000000; stroke-width: 0.8"/>
      </g>
     </g>
     <g id="text_5">
      <!-- 64 | 256 -->
      <g transform="translate(377.718523 322.226187) scale(0.1 -0.1)">
       <defs>
        <path id="DejaVuSans-35" d="M 691 4666 
L 3169 4666 
L 3169 4134 
L 1269 4134 
L 1269 2991 
Q 1406 3038 1543 3061 
Q 1681 3084 1819 3084 
Q 2600 3084 3056 2656 
Q 3513 2228 3513 1497 
Q 3513 744 3044 326 
Q 2575 -91 1722 -91 
Q 1428 -91 1123 -41 
Q 819 9 494 109 
L 494 744 
Q 775 591 1075 516 
Q 1375 441 1709 441 
Q 2250 441 2565 725 
Q 2881 1009 2881 1497 
Q 2881 1984 2565 2268 
Q 2250 2553 1709 2553 
Q 1456 2553 1204 2497 
Q 953 2441 691 2322 
L 691 4666 
z
" transform="scale(0.015625)"/>
       </defs>
       <use xlink:href="#DejaVuSans-36"/>
       <use xlink:href="#DejaVuSans-34" x="63.623047"/>
       <use xlink:href="#DejaVuSans-20" x="127.246094"/>
       <use xlink:href="#DejaVuSans-7c" x="159.033203"/>
       <use xlink:href="#DejaVuSans-20" x="192.724609"/>
       <use xlink:href="#DejaVuSans-32" x="224.511719"/>
       <use xlink:href="#DejaVuSans-35" x="288.134766"/>
       <use xlink:href="#DejaVuSans-36" x="351.757812"/>
      </g>
     </g>
    </g>
    <g id="text_6">
     <!-- parallelism -->
     <g transform="translate(208.694375 336.182437) scale(0.1 -0.1)">
      <defs>
       <path id="DejaVuSans-70" d="M 1159 525 
L 1159 -1331 
L 581 -1331 
L 581 3500 
L 1159 3500 
L 1159 2969 
Q 1341 3281 1617 3432 
Q 1894 3584 2278 3584 
Q 2916 3584 3314 3078 
Q 3713 2572 3713 1747 
Q 3713 922 3314 415 
Q 2916 -91 2278 -91 
Q 1894 -91 1617 61 
Q 1341 213 1159 525 
z
M 3116 1747 
Q 3116 2381 2855 2742 
Q 2594 3103 2138 3103 
Q 1681 3103 1420 2742 
Q 1159 2381 1159 1747 
Q 1159 1113 1420 752 
Q 1681 391 2138 391 
Q 2594 391 2855 752 
Q 3116 1113 3116 1747 
z
" transform="scale(0.015625)"/>
       <path id="DejaVuSans-61" d="M 2194 1759 
Q 1497 1759 1228 1600 
Q 959 1441 959 1056 
Q 959 750 1161 570 
Q 1363 391 1709 391 
Q 2188 391 2477 730 
Q 2766 1069 2766 1631 
L 2766 1759 
L 2194 1759 
z
M 3341 1997 
L 3341 0 
L 2766 0 
L 2766 531 
Q 2569 213 2275 61 
Q 1981 -91 1556 -91 
Q 1019 -91 701 211 
Q 384 513 384 1019 
Q 384 1609 779 1909 
Q 1175 2209 1959 2209 
L 2766 2209 
L 2766 2266 
Q 2766 2663 2505 2880 
Q 2244 3097 1772 3097 
Q 1472 3097 1187 3025 
Q 903 2953 641 2809 
L 641 3341 
Q 956 3463 1253 3523 
Q 1550 3584 1831 3584 
Q 2591 3584 2966 3190 
Q 3341 2797 3341 1997 
z
" transform="scale(0.015625)"/>
       <path id="DejaVuSans-72" d="M 2631 2963 
Q 2534 3019 2420 3045 
Q 2306 3072 2169 3072 
Q 1681 3072 1420 2755 
Q 1159 2438 1159 1844 
L 1159 0 
L 581 0 
L 581 3500 
L 1159 3500 
L 1159 2956 
Q 1341 3275 1631 3429 
Q 1922 3584 2338 3584 
Q 2397 3584 2469 3576 
Q 2541 3569 2628 3553 
L 2631 2963 
z
" transform="scale(0.015625)"/>
       <path id="DejaVuSans-6c" d="M 603 4863 
L 1178 4863 
L 1178 0 
L 603 0 
L 603 4863 
z
" transform="scale(0.015625)"/>
       <path id="DejaVuSans-65" d="M 3597 1894 
L 3597 1613 
L 953 1613 
Q 991 1019 1311 708 
Q 1631 397 2203 397 
Q 2534 397 2845 478 
Q 3156 559 3463 722 
L 3463 178 
Q 3153 47 2828 -22 
Q 2503 -91 2169 -91 
Q 1331 -91 842 396 
Q 353 884 353 1716 
Q 353 2575 817 3079 
Q 1281 3584 2069 3584 
Q 2775 3584 3186 3129 
Q 3597 2675 3597 1894 
z
M 3022 2063 
Q 3016 2534 2758 2815 
Q 2500 3097 2075 3097 
Q 1594 3097 1305 2825 
Q 1016 2553 972 2059 
L 3022 2063 
z
" transform="scale(0.015625)"/>
       <path id="DejaVuSans-69" d="M 603 3500 
L 1178 3500 
L 1178 0 
L 603 0 
L 603 3500 
z
M 603 4863 
L 1178 4863 
L 1178 4134 
L 603 4134 
L 603 4863 
z
" transform="scale(0.015625)"/>
       <path id="DejaVuSans-73" d="M 2834 3397 
L 2834 2853 
Q 2591 2978 2328 3040 
Q 2066 3103 1784 3103 
Q 1356 3103 1142 2972 
Q 928 2841 928 2578 
Q 928 2378 1081 2264 
Q 1234 2150 1697 2047 
L 1894 2003 
Q 2506 1872 2764 1633 
Q 3022 1394 3022 966 
Q 3022 478 2636 193 
Q 2250 -91 1575 -91 
Q 1294 -91 989 -36 
Q 684 19 347 128 
L 347 722 
Q 666 556 975 473 
Q 1284 391 1588 391 
Q 1994 391 2212 530 
Q 2431 669 2431 922 
Q 2431 1156 2273 1281 
Q 2116 1406 1581 1522 
L 1381 1569 
Q 847 1681 609 1914 
Q 372 2147 372 2553 
Q 372 3047 722 3315 
Q 1072 3584 1716 3584 
Q 2034 3584 2315 3537 
Q 2597 3491 2834 3397 
z
" transform="scale(0.015625)"/>
       <path id="DejaVuSans-6d" d="M 3328 2828 
Q 3544 3216 3844 3400 
Q 4144 3584 4550 3584 
Q 5097 3584 5394 3201 
Q 5691 2819 5691 2113 
L 5691 0 
L 5113 0 
L 5113 2094 
Q 5113 2597 4934 2840 
Q 4756 3084 4391 3084 
Q 3944 3084 3684 2787 
Q 3425 2491 3425 1978 
L 3425 0 
L 2847 0 
L 2847 2094 
Q 2847 2600 2669 2842 
Q 2491 3084 2119 3084 
Q 1678 3084 1418 2786 
Q 1159 2488 1159 1978 
L 1159 0 
L 581 0 
L 581 3500 
L 1159 3500 
L 1159 2956 
Q 1356 3278 1631 3431 
Q 1906 3584 2284 3584 
Q 2666 3584 2933 3390 
Q 3200 3197 3328 2828 
z
" transform="scale(0.015625)"/>
      </defs>
      <use xlink:href="#DejaVuSans-70"/>
      <use xlink:href="#DejaVuSans-61" x="63.476562"/>
      <use xlink:href="#DejaVuSans-72" x="124.755859"/>
      <use xlink:href="#DejaVuSans-61" x="165.869141"/>
      <use xlink:href="#DejaVuSans-6c" x="227.148438"/>
      <use xlink:href="#DejaVuSans-6c" x="254.931641"/>
      <use xlink:href="#DejaVuSans-65" x="282.714844"/>
      <use xlink:href="#DejaVuSans-6c" x="344.238281"/>
      <use xlink:href="#DejaVuSans-69" x="372.021484"/>
      <use xlink:href="#DejaVuSans-73" x="399.804688"/>
      <use xlink:href="#DejaVuSans-6d" x="451.904297"/>
     </g>
    </g>
   </g>
   <g id="matplotlib.axis_2">
    <g id="ytick_1">
     <g id="line2d_6">
      <defs>
       <path id="md1573955b6" d="M 0 0 
L -3.5 0 
" style="stroke: #000000; stroke-width: 0.8"/>
      </defs>
      <g>
       <use xlink:href="#md1573955b6" x="57.6" y="272.873739" style="stroke: #000000; stroke-width: 0.8"/>
      </g>
     </g>
     <g id="text_7">
      <!-- 10 -->
      <g transform="translate(37.875 276.672958) scale(0.1 -0.1)">
       <defs>
        <path id="DejaVuSans-30" d="M 2034 4250 
Q 1547 4250 1301 3770 
Q 1056 3291 1056 2328 
Q 1056 1369 1301 889 
Q 1547 409 2034 409 
Q 2525 409 2770 889 
Q 3016 1369 3016 2328 
Q 3016 3291 2770 3770 
Q 2525 4250 2034 4250 
z
M 2034 4750 
Q 2819 4750 3233 4129 
Q 3647 3509 3647 2328 
Q 3647 1150 3233 529 
Q 2819 -91 2034 -91 
Q 1250 -91 836 529 
Q 422 1150 422 2328 
Q 422 3509 836 4129 
Q 1250 4750 2034 4750 
z
" transform="scale(0.015625)"/>
       </defs>
       <use xlink:href="#DejaVuSans-31"/>
       <use xlink:href="#DejaVuSans-30" x="63.623047"/>
      </g>
     </g>
    </g>
    <g id="ytick_2">
     <g id="line2d_7">
      <g>
       <use xlink:href="#md1573955b6" x="57.6" y="234.306783" style="stroke: #000000; stroke-width: 0.8"/>
      </g>
     </g>
     <g id="text_8">
      <!-- 20 -->
      <g transform="translate(37.875 238.106001) scale(0.1 -0.1)">
       <use xlink:href="#DejaVuSans-32"/>
       <use xlink:href="#DejaVuSans-30" x="63.623047"/>
      </g>
     </g>
    </g>
    <g id="ytick_3">
     <g id="line2d_8">
      <g>
       <use xlink:href="#md1573955b6" x="57.6" y="195.739826" style="stroke: #000000; stroke-width: 0.8"/>
      </g>
     </g>
     <g id="text_9">
      <!-- 30 -->
      <g transform="translate(37.875 199.539045) scale(0.1 -0.1)">
       <use xlink:href="#DejaVuSans-33"/>
       <use xlink:href="#DejaVuSans-30" x="63.623047"/>
      </g>
     </g>
    </g>
    <g id="ytick_4">
     <g id="line2d_9">
      <g>
       <use xlink:href="#md1573955b6" x="57.6" y="157.17287" style="stroke: #000000; stroke-width: 0.8"/>
      </g>
     </g>
     <g id="text_10">
      <!-- 40 -->
      <g transform="translate(37.875 160.972088) scale(0.1 -0.1)">
       <use xlink:href="#DejaVuSans-34"/>
       <use xlink:href="#DejaVuSans-30" x="63.623047"/>
      </g>
     </g>
    </g>
    <g id="ytick_5">
     <g id="line2d_10">
      <g>
       <use xlink:href="#md1573955b6" x="57.6" y="118.605913" style="stroke: #000000; stroke-width: 0.8"/>
      </g>
     </g>
     <g id="text_11">
      <!-- 50 -->
      <g transform="translate(37.875 122.405132) scale(0.1 -0.1)">
       <use xlink:href="#DejaVuSans-35"/>
       <use xlink:href="#DejaVuSans-30" x="63.623047"/>
      </g>
     </g>
    </g>
    <g id="ytick_6">
     <g id="line2d_11">
      <g>
       <use xlink:href="#md1573955b6" x="57.6" y="80.038957" style="stroke: #000000; stroke-width: 0.8"/>
      </g>
     </g>
     <g id="text_12">
      <!-- 60 -->
      <g transform="translate(37.875 83.838175) scale(0.1 -0.1)">
       <use xlink:href="#DejaVuSans-36"/>
       <use xlink:href="#DejaVuSans-30" x="63.623047"/>
      </g>
     </g>
    </g>
    <g id="ytick_7">
     <g id="line2d_12">
      <g>
       <use xlink:href="#md1573955b6" x="57.6" y="41.472" style="stroke: #000000; stroke-width: 0.8"/>
      </g>
     </g>
     <g id="text_13">
      <!-- 70 -->
      <g transform="translate(37.875 45.271219) scale(0.1 -0.1)">
       <defs>
        <path id="DejaVuSans-37" d="M 525 4666 
L 3525 4666 
L 3525 4397 
L 1831 0 
L 1172 0 
L 2766 4134 
L 525 4134 
L 525 4666 
z
" transform="scale(0.015625)"/>
       </defs>
       <use xlink:href="#DejaVuSans-37"/>
       <use xlink:href="#DejaVuSans-30" x="63.623047"/>
      </g>
     </g>
    </g>
    <g id="text_14">
     <!-- average time (s) -->
     <g transform="translate(31.795312 215.978781) rotate(-90) scale(0.1 -0.1)">
      <defs>
       <path id="DejaVuSans-76" d="M 191 3500 
L 800 3500 
L 1894 563 
L 2988 3500 
L 3597 3500 
L 2284 0 
L 1503 0 
L 191 3500 
z
" transform="scale(0.015625)"/>
       <path id="DejaVuSans-67" d="M 2906 1791 
Q 2906 2416 2648 2759 
Q 2391 3103 1925 3103 
Q 1463 3103 1205 2759 
Q 947 2416 947 1791 
Q 947 1169 1205 825 
Q 1463 481 1925 481 
Q 2391 481 2648 825 
Q 2906 1169 2906 1791 
z
M 3481 434 
Q 3481 -459 3084 -895 
Q 2688 -1331 1869 -1331 
Q 1566 -1331 1297 -1286 
Q 1028 -1241 775 -1147 
L 775 -588 
Q 1028 -725 1275 -790 
Q 1522 -856 1778 -856 
Q 2344 -856 2625 -561 
Q 2906 -266 2906 331 
L 2906 616 
Q 2728 306 2450 153 
Q 2172 0 1784 0 
Q 1141 0 747 490 
Q 353 981 353 1791 
Q 353 2603 747 3093 
Q 1141 3584 1784 3584 
Q 2172 3584 2450 3431 
Q 2728 3278 2906 2969 
L 2906 3500 
L 3481 3500 
L 3481 434 
z
" transform="scale(0.015625)"/>
       <path id="DejaVuSans-74" d="M 1172 4494 
L 1172 3500 
L 2356 3500 
L 2356 3053 
L 1172 3053 
L 1172 1153 
Q 1172 725 1289 603 
Q 1406 481 1766 481 
L 2356 481 
L 2356 0 
L 1766 0 
Q 1100 0 847 248 
Q 594 497 594 1153 
L 594 3053 
L 172 3053 
L 172 3500 
L 594 3500 
L 594 4494 
L 1172 4494 
z
" transform="scale(0.015625)"/>
       <path id="DejaVuSans-28" d="M 1984 4856 
Q 1566 4138 1362 3434 
Q 1159 2731 1159 2009 
Q 1159 1288 1364 580 
Q 1569 -128 1984 -844 
L 1484 -844 
Q 1016 -109 783 600 
Q 550 1309 550 2009 
Q 550 2706 781 3412 
Q 1013 4119 1484 4856 
L 1984 4856 
z
" transform="scale(0.015625)"/>
       <path id="DejaVuSans-29" d="M 513 4856 
L 1013 4856 
Q 1481 4119 1714 3412 
Q 1947 2706 1947 2009 
Q 1947 1309 1714 600 
Q 1481 -109 1013 -844 
L 513 -844 
Q 928 -128 1133 580 
Q 1338 1288 1338 2009 
Q 1338 2731 1133 3434 
Q 928 4138 513 4856 
z
" transform="scale(0.015625)"/>
      </defs>
      <use xlink:href="#DejaVuSans-61"/>
      <use xlink:href="#DejaVuSans-76" x="61.279297"/>
      <use xlink:href="#DejaVuSans-65" x="120.458984"/>
      <use xlink:href="#DejaVuSans-72" x="181.982422"/>
      <use xlink:href="#DejaVuSans-61" x="223.095703"/>
      <use xlink:href="#DejaVuSans-67" x="284.375"/>
      <use xlink:href="#DejaVuSans-65" x="347.851562"/>
      <use xlink:href="#DejaVuSans-20" x="409.375"/>
      <use xlink:href="#DejaVuSans-74" x="441.162109"/>
      <use xlink:href="#DejaVuSans-69" x="480.371094"/>
      <use xlink:href="#DejaVuSans-6d" x="508.154297"/>
      <use xlink:href="#DejaVuSans-65" x="605.566406"/>
      <use xlink:href="#DejaVuSans-20" x="667.089844"/>
      <use xlink:href="#DejaVuSans-28" x="698.876953"/>
      <use xlink:href="#DejaVuSans-73" x="737.890625"/>
      <use xlink:href="#DejaVuSans-29" x="789.990234"/>
     </g>
    </g>
   </g>
   <g id="line2d_13">
    <path d="M 73.832727 133.036299 
L 154.996364 209.476366 
L 236.16 256.506822 
L 317.323636 284.495319 
L 398.487273 297.601878 
" clip-path="url(#p855b21aba5)" style="fill: none; stroke: #0000ff; stroke-width: 1.5; stroke-linecap: square"/>
    <defs>
     <path id="m6ac01031a3" d="M 0 3 
C 0.795609 3 1.55874 2.683901 2.12132 2.12132 
C 2.683901 1.55874 3 0.795609 3 0 
C 3 -0.795609 2.683901 -1.55874 2.12132 -2.12132 
C 1.55874 -2.683901 0.795609 -3 0 -3 
C -0.795609 -3 -1.55874 -2.683901 -2.12132 -2.12132 
C -2.683901 -1.55874 -3 -0.795609 -3 0 
C -3 0.795609 -2.683901 1.55874 -2.12132 2.12132 
C -1.55874 2.683901 -0.795609 3 0 3 
z
" style="stroke: #0000ff"/>
    </defs>
    <g clip-path="url(#p855b21aba5)">
     <use xlink:href="#m6ac01031a3" x="73.832727" y="133.036299" style="fill: #0000ff; stroke: #0000ff"/>
     <use xlink:href="#m6ac01031a3" x="154.996364" y="209.476366" style="fill: #0000ff; stroke: #0000ff"/>
     <use xlink:href="#m6ac01031a3" x="236.16" y="256.506822" style="fill: #0000ff; stroke: #0000ff"/>
     <use xlink:href="#m6ac01031a3" x="317.323636" y="284.495319" style="fill: #0000ff; stroke: #0000ff"/>
     <use xlink:href="#m6ac01031a3" x="398.487273" y="297.601878" style="fill: #0000ff; stroke: #0000ff"/>
    </g>
   </g>
   <g id="line2d_14">
    <path d="M 73.832727 104.755973 
L 154.996364 187.956724 
L 236.16 251.185015 
L 317.323636 281.604969 
L 398.487273 296.438948 
" clip-path="url(#p855b21aba5)" style="fill: none; stroke: #008000; stroke-width: 1.5; stroke-linecap: square"/>
    <defs>
     <path id="m268e5d3b18" d="M 0 3 
C 0.795609 3 1.55874 2.683901 2.12132 2.12132 
C 2.683901 1.55874 3 0.795609 3 0 
C 3 -0.795609 2.683901 -1.55874 2.12132 -2.12132 
C 1.55874 -2.683901 0.795609 -3 0 -3 
C -0.795609 -3 -1.55874 -2.683901 -2.12132 -2.12132 
C -2.683901 -1.55874 -3 -0.795609 -3 0 
C -3 0.795609 -2.683901 1.55874 -2.12132 2.12132 
C -1.55874 2.683901 -0.795609 3 0 3 
z
" style="stroke: #008000"/>
    </defs>
    <g clip-path="url(#p855b21aba5)">
     <use xlink:href="#m268e5d3b18" x="73.832727" y="104.755973" style="fill: #008000; stroke: #008000"/>
     <use xlink:href="#m268e5d3b18" x="154.996364" y="187.956724" style="fill: #008000; stroke: #008000"/>
     <use xlink:href="#m268e5d3b18" x="236.16" y="251.185015" style="fill: #008000; stroke: #008000"/>
     <use xlink:href="#m268e5d3b18" x="317.323636" y="281.604969" style="fill: #008000; stroke: #008000"/>
     <use xlink:href="#m268e5d3b18" x="398.487273" y="296.438948" style="fill: #008000; stroke: #008000"/>
    </g>
   </g>
   <g id="line2d_15">
    <path d="M 73.832727 84.997118 
L 154.996364 167.392588 
L 236.16 241.156983 
L 317.323636 275.172252 
L 398.487273 293.305692 
" clip-path="url(#p855b21aba5)" style="fill: none; stroke: #ff0000; stroke-width: 1.5; stroke-linecap: square"/>
    <defs>
     <path id="mdc8881d7ae" d="M 0 3 
C 0.795609 3 1.55874 2.683901 2.12132 2.12132 
C 2.683901 1.55874 3 0.795609 3 0 
C 3 -0.795609 2.683901 -1.55874 2.12132 -2.12132 
C 1.55874 -2.683901 0.795609 -3 0 -3 
C -0.795609 -3 -1.55874 -2.683901 -2.12132 -2.12132 
C -2.683901 -1.55874 -3 -0.795609 -3 0 
C -3 0.795609 -2.683901 1.55874 -2.12132 2.12132 
C -1.55874 2.683901 -0.795609 3 0 3 
z
" style="stroke: #ff0000"/>
    </defs>
    <g clip-path="url(#p855b21aba5)">
     <use xlink:href="#mdc8881d7ae" x="73.832727" y="84.997118" style="fill: #ff0000; stroke: #ff0000"/>
     <use xlink:href="#mdc8881d7ae" x="154.996364" y="167.392588" style="fill: #ff0000; stroke: #ff0000"/>
     <use xlink:href="#mdc8881d7ae" x="236.16" y="241.156983" style="fill: #ff0000; stroke: #ff0000"/>
     <use xlink:href="#mdc8881d7ae" x="317.323636" y="275.172252" style="fill: #ff0000; stroke: #ff0000"/>
     <use xlink:href="#mdc8881d7ae" x="398.487273" y="293.305692" style="fill: #ff0000; stroke: #ff0000"/>
    </g>
   </g>
   <g id="line2d_16">
    <path d="M 73.832727 84.236491 
L 154.996364 172.710397 
L 236.16 244.269101 
L 317.323636 278.562177 
L 398.487273 295.001434 
" clip-path="url(#p855b21aba5)" style="fill: none; stroke: #ffa500; stroke-width: 1.5; stroke-linecap: square"/>
    <defs>
     <path id="m151b9f3d92" d="M 0 3 
C 0.795609 3 1.55874 2.683901 2.12132 2.12132 
C 2.683901 1.55874 3 0.795609 3 0 
C 3 -0.795609 2.683901 -1.55874 2.12132 -2.12132 
C 1.55874 -2.683901 0.795609 -3 0 -3 
C -0.795609 -3 -1.55874 -2.683901 -2.12132 -2.12132 
C -2.683901 -1.55874 -3 -0.795609 -3 0 
C -3 0.795609 -2.683901 1.55874 -2.12132 2.12132 
C -1.55874 2.683901 -0.795609 3 0 3 
z
" style="stroke: #ffa500"/>
    </defs>
    <g clip-path="url(#p855b21aba5)">
     <use xlink:href="#m151b9f3d92" x="73.832727" y="84.236491" style="fill: #ffa500; stroke: #ffa500"/>
     <use xlink:href="#m151b9f3d92" x="154.996364" y="172.710397" style="fill: #ffa500; stroke: #ffa500"/>
     <use xlink:href="#m151b9f3d92" x="236.16" y="244.269101" style="fill: #ffa500; stroke: #ffa500"/>
     <use xlink:href="#m151b9f3d92" x="317.323636" y="278.562177" style="fill: #ffa500; stroke: #ffa500"/>
     <use xlink:href="#m151b9f3d92" x="398.487273" y="295.001434" style="fill: #ffa500; stroke: #ffa500"/>
    </g>
   </g>
   <g id="LineCollection_1">
    <path d="M 73.832727 143.019104 
L 73.832727 123.053494 
" clip-path="url(#p855b21aba5)" style="fill: none; stroke: #0000ff; stroke-width: 1.5"/>
    <path d="M 154.996364 214.828186 
L 154.996364 204.124545 
" clip-path="url(#p855b21aba5)" style="fill: none; stroke: #0000ff; stroke-width: 1.5"/>
    <path d="M 236.16 257.042946 
L 236.16 255.970698 
" clip-path="url(#p855b21aba5)" style="fill: none; stroke: #0000ff; stroke-width: 1.5"/>
    <path d="M 317.323636 284.914887 
L 317.323636 284.075752 
" clip-path="url(#p855b21aba5)" style="fill: none; stroke: #0000ff; stroke-width: 1.5"/>
    <path d="M 398.487273 297.780192 
L 398.487273 297.423565 
" clip-path="url(#p855b21aba5)" style="fill: none; stroke: #0000ff; stroke-width: 1.5"/>
   </g>
   <g id="line2d_17">
    <defs>
     <path id="me41f24d154" d="M 5 0 
L -5 -0 
" style="stroke: #0000ff"/>
    </defs>
    <g clip-path="url(#p855b21aba5)">
     <use xlink:href="#me41f24d154" x="73.832727" y="143.019104" style="fill: #0000ff; stroke: #0000ff"/>
     <use xlink:href="#me41f24d154" x="154.996364" y="214.828186" style="fill: #0000ff; stroke: #0000ff"/>
     <use xlink:href="#me41f24d154" x="236.16" y="257.042946" style="fill: #0000ff; stroke: #0000ff"/>
     <use xlink:href="#me41f24d154" x="317.323636" y="284.914887" style="fill: #0000ff; stroke: #0000ff"/>
     <use xlink:href="#me41f24d154" x="398.487273" y="297.780192" style="fill: #0000ff; stroke: #0000ff"/>
    </g>
   </g>
   <g id="line2d_18">
    <g clip-path="url(#p855b21aba5)">
     <use xlink:href="#me41f24d154" x="73.832727" y="123.053494" style="fill: #0000ff; stroke: #0000ff"/>
     <use xlink:href="#me41f24d154" x="154.996364" y="204.124545" style="fill: #0000ff; stroke: #0000ff"/>
     <use xlink:href="#me41f24d154" x="236.16" y="255.970698" style="fill: #0000ff; stroke: #0000ff"/>
     <use xlink:href="#me41f24d154" x="317.323636" y="284.075752" style="fill: #0000ff; stroke: #0000ff"/>
     <use xlink:href="#me41f24d154" x="398.487273" y="297.423565" style="fill: #0000ff; stroke: #0000ff"/>
    </g>
   </g>
   <g id="LineCollection_2">
    <path d="M 73.832727 105.29816 
L 73.832727 104.213787 
" clip-path="url(#p855b21aba5)" style="fill: none; stroke: #008000; stroke-width: 1.5"/>
    <path d="M 154.996364 189.828849 
L 154.996364 186.084599 
" clip-path="url(#p855b21aba5)" style="fill: none; stroke: #008000; stroke-width: 1.5"/>
    <path d="M 236.16 251.439992 
L 236.16 250.930038 
" clip-path="url(#p855b21aba5)" style="fill: none; stroke: #008000; stroke-width: 1.5"/>
    <path d="M 317.323636 281.711892 
L 317.323636 281.498046 
" clip-path="url(#p855b21aba5)" style="fill: none; stroke: #008000; stroke-width: 1.5"/>
    <path d="M 398.487273 296.642017 
L 398.487273 296.235878 
" clip-path="url(#p855b21aba5)" style="fill: none; stroke: #008000; stroke-width: 1.5"/>
   </g>
   <g id="line2d_19">
    <defs>
     <path id="m34888ef42b" d="M 5 0 
L -5 -0 
" style="stroke: #008000"/>
    </defs>
    <g clip-path="url(#p855b21aba5)">
     <use xlink:href="#m34888ef42b" x="73.832727" y="105.29816" style="fill: #008000; stroke: #008000"/>
     <use xlink:href="#m34888ef42b" x="154.996364" y="189.828849" style="fill: #008000; stroke: #008000"/>
     <use xlink:href="#m34888ef42b" x="236.16" y="251.439992" style="fill: #008000; stroke: #008000"/>
     <use xlink:href="#m34888ef42b" x="317.323636" y="281.711892" style="fill: #008000; stroke: #008000"/>
     <use xlink:href="#m34888ef42b" x="398.487273" y="296.642017" style="fill: #008000; stroke: #008000"/>
    </g>
   </g>
   <g id="line2d_20">
    <g clip-path="url(#p855b21aba5)">
     <use xlink:href="#m34888ef42b" x="73.832727" y="104.213787" style="fill: #008000; stroke: #008000"/>
     <use xlink:href="#m34888ef42b" x="154.996364" y="186.084599" style="fill: #008000; stroke: #008000"/>
     <use xlink:href="#m34888ef42b" x="236.16" y="250.930038" style="fill: #008000; stroke: #008000"/>
     <use xlink:href="#m34888ef42b" x="317.323636" y="281.498046" style="fill: #008000; stroke: #008000"/>
     <use xlink:href="#m34888ef42b" x="398.487273" y="296.235878" style="fill: #008000; stroke: #008000"/>
    </g>
   </g>
   <g id="LineCollection_3">
    <path d="M 73.832727 116.516559 
L 73.832727 53.477678 
" clip-path="url(#p855b21aba5)" style="fill: none; stroke: #ff0000; stroke-width: 1.5"/>
    <path d="M 154.996364 172.974584 
L 154.996364 161.810591 
" clip-path="url(#p855b21aba5)" style="fill: none; stroke: #ff0000; stroke-width: 1.5"/>
    <path d="M 236.16 245.353815 
L 236.16 236.960151 
" clip-path="url(#p855b21aba5)" style="fill: none; stroke: #ff0000; stroke-width: 1.5"/>
    <path d="M 317.323636 276.707208 
L 317.323636 273.637295 
" clip-path="url(#p855b21aba5)" style="fill: none; stroke: #ff0000; stroke-width: 1.5"/>
    <path d="M 398.487273 293.734969 
L 398.487273 292.876415 
" clip-path="url(#p855b21aba5)" style="fill: none; stroke: #ff0000; stroke-width: 1.5"/>
   </g>
   <g id="line2d_21">
    <defs>
     <path id="md7bdf6cb90" d="M 5 0 
L -5 -0 
" style="stroke: #ff0000"/>
    </defs>
    <g clip-path="url(#p855b21aba5)">
     <use xlink:href="#md7bdf6cb90" x="73.832727" y="116.516559" style="fill: #ff0000; stroke: #ff0000"/>
     <use xlink:href="#md7bdf6cb90" x="154.996364" y="172.974584" style="fill: #ff0000; stroke: #ff0000"/>
     <use xlink:href="#md7bdf6cb90" x="236.16" y="245.353815" style="fill: #ff0000; stroke: #ff0000"/>
     <use xlink:href="#md7bdf6cb90" x="317.323636" y="276.707208" style="fill: #ff0000; stroke: #ff0000"/>
     <use xlink:href="#md7bdf6cb90" x="398.487273" y="293.734969" style="fill: #ff0000; stroke: #ff0000"/>
    </g>
   </g>
   <g id="line2d_22">
    <g clip-path="url(#p855b21aba5)">
     <use xlink:href="#md7bdf6cb90" x="73.832727" y="53.477678" style="fill: #ff0000; stroke: #ff0000"/>
     <use xlink:href="#md7bdf6cb90" x="154.996364" y="161.810591" style="fill: #ff0000; stroke: #ff0000"/>
     <use xlink:href="#md7bdf6cb90" x="236.16" y="236.960151" style="fill: #ff0000; stroke: #ff0000"/>
     <use xlink:href="#md7bdf6cb90" x="317.323636" y="273.637295" style="fill: #ff0000; stroke: #ff0000"/>
     <use xlink:href="#md7bdf6cb90" x="398.487273" y="292.876415" style="fill: #ff0000; stroke: #ff0000"/>
    </g>
   </g>
   <g id="LineCollection_4">
    <path d="M 73.832727 87.577014 
L 73.832727 80.895969 
" clip-path="url(#p855b21aba5)" style="fill: none; stroke: #ffa500; stroke-width: 1.5"/>
    <path d="M 154.996364 173.626459 
L 154.996364 171.794336 
" clip-path="url(#p855b21aba5)" style="fill: none; stroke: #ffa500; stroke-width: 1.5"/>
    <path d="M 236.16 244.894383 
L 236.16 243.643819 
" clip-path="url(#p855b21aba5)" style="fill: none; stroke: #ffa500; stroke-width: 1.5"/>
    <path d="M 317.323636 278.666846 
L 317.323636 278.457508 
" clip-path="url(#p855b21aba5)" style="fill: none; stroke: #ffa500; stroke-width: 1.5"/>
    <path d="M 398.487273 295.066339 
L 398.487273 294.93653 
" clip-path="url(#p855b21aba5)" style="fill: none; stroke: #ffa500; stroke-width: 1.5"/>
   </g>
   <g id="line2d_23">
    <defs>
     <path id="m00e417e652" d="M 5 0 
L -5 -0 
" style="stroke: #ffa500"/>
    </defs>
    <g clip-path="url(#p855b21aba5)">
     <use xlink:href="#m00e417e652" x="73.832727" y="87.577014" style="fill: #ffa500; stroke: #ffa500"/>
     <use xlink:href="#m00e417e652" x="154.996364" y="173.626459" style="fill: #ffa500; stroke: #ffa500"/>
     <use xlink:href="#m00e417e652" x="236.16" y="244.894383" style="fill: #ffa500; stroke: #ffa500"/>
     <use xlink:href="#m00e417e652" x="317.323636" y="278.666846" style="fill: #ffa500; stroke: #ffa500"/>
     <use xlink:href="#m00e417e652" x="398.487273" y="295.066339" style="fill: #ffa500; stroke: #ffa500"/>
    </g>
   </g>
   <g id="line2d_24">
    <g clip-path="url(#p855b21aba5)">
     <use xlink:href="#m00e417e652" x="73.832727" y="80.895969" style="fill: #ffa500; stroke: #ffa500"/>
     <use xlink:href="#m00e417e652" x="154.996364" y="171.794336" style="fill: #ffa500; stroke: #ffa500"/>
     <use xlink:href="#m00e417e652" x="236.16" y="243.643819" style="fill: #ffa500; stroke: #ffa500"/>
     <use xlink:href="#m00e417e652" x="317.323636" y="278.457508" style="fill: #ffa500; stroke: #ffa500"/>
     <use xlink:href="#m00e417e652" x="398.487273" y="294.93653" style="fill: #ffa500; stroke: #ffa500"/>
    </g>
   </g>
   <g id="line2d_25">
    <defs>
     <path id="mbcb5b80a5b" d="M -3 3 
L 3 -3 
M -3 -3 
L 3 3 
" style="stroke: #0000ff"/>
    </defs>
    <g clip-path="url(#p855b21aba5)">
     <use xlink:href="#mbcb5b80a5b" x="73.832727" y="133.036299" style="fill: #0000ff; stroke: #0000ff"/>
     <use xlink:href="#mbcb5b80a5b" x="154.996364" y="209.476366" style="fill: #0000ff; stroke: #0000ff"/>
     <use xlink:href="#mbcb5b80a5b" x="236.16" y="256.506822" style="fill: #0000ff; stroke: #0000ff"/>
     <use xlink:href="#mbcb5b80a5b" x="317.323636" y="284.495319" style="fill: #0000ff; stroke: #0000ff"/>
     <use xlink:href="#mbcb5b80a5b" x="398.487273" y="297.601878" style="fill: #0000ff; stroke: #0000ff"/>
    </g>
   </g>
   <g id="line2d_26">
    <g clip-path="url(#p855b21aba5)">
     <use xlink:href="#m268e5d3b18" x="73.832727" y="104.755973" style="fill: #008000; stroke: #008000"/>
     <use xlink:href="#m268e5d3b18" x="154.996364" y="187.956724" style="fill: #008000; stroke: #008000"/>
     <use xlink:href="#m268e5d3b18" x="236.16" y="251.185015" style="fill: #008000; stroke: #008000"/>
     <use xlink:href="#m268e5d3b18" x="317.323636" y="281.604969" style="fill: #008000; stroke: #008000"/>
     <use xlink:href="#m268e5d3b18" x="398.487273" y="296.438948" style="fill: #008000; stroke: #008000"/>
    </g>
   </g>
   <g id="line2d_27">
    <defs>
     <path id="m6ac6944c89" d="M -3 3 
L 3 -3 
M -3 -3 
L 3 3 
" style="stroke: #ff0000"/>
    </defs>
    <g clip-path="url(#p855b21aba5)">
     <use xlink:href="#m6ac6944c89" x="73.832727" y="84.997118" style="fill: #ff0000; stroke: #ff0000"/>
     <use xlink:href="#m6ac6944c89" x="154.996364" y="167.392588" style="fill: #ff0000; stroke: #ff0000"/>
     <use xlink:href="#m6ac6944c89" x="236.16" y="241.156983" style="fill: #ff0000; stroke: #ff0000"/>
     <use xlink:href="#m6ac6944c89" x="317.323636" y="275.172252" style="fill: #ff0000; stroke: #ff0000"/>
     <use xlink:href="#m6ac6944c89" x="398.487273" y="293.305692" style="fill: #ff0000; stroke: #ff0000"/>
    </g>
   </g>
   <g id="line2d_28">
    <defs>
     <path id="m852c13411c" d="M -3 3 
L 3 -3 
M -3 -3 
L 3 3 
" style="stroke: #ffa500"/>
    </defs>
    <g clip-path="url(#p855b21aba5)">
     <use xlink:href="#m852c13411c" x="73.832727" y="84.236491" style="fill: #ffa500; stroke: #ffa500"/>
     <use xlink:href="#m852c13411c" x="154.996364" y="172.710397" style="fill: #ffa500; stroke: #ffa500"/>
     <use xlink:href="#m852c13411c" x="236.16" y="244.269101" style="fill: #ffa500; stroke: #ffa500"/>
     <use xlink:href="#m852c13411c" x="317.323636" y="278.562177" style="fill: #ffa500; stroke: #ffa500"/>
     <use xlink:href="#m852c13411c" x="398.487273" y="295.001434" style="fill: #ffa500; stroke: #ffa500"/>
    </g>
   </g>
   <g id="patch_3">
    <path d="M 57.6 307.584 
L 57.6 41.472 
" style="fill: none; stroke: #000000; stroke-width: 0.8; stroke-linejoin: miter; stroke-linecap: square"/>
   </g>
   <g id="patch_4">
    <path d="M 414.72 307.584 
L 414.72 41.472 
" style="fill: none; stroke: #000000; stroke-width: 0.8; stroke-linejoin: miter; stroke-linecap: square"/>
   </g>
   <g id="patch_5">
    <path d="M 57.6 307.584 
L 414.72 307.584 
" style="fill: none; stroke: #000000; stroke-width: 0.8; stroke-linejoin: miter; stroke-linecap: square"/>
   </g>
   <g id="patch_6">
    <path d="M 57.6 41.472 
L 414.72 41.472 
" style="fill: none; stroke: #000000; stroke-width: 0.8; stroke-linejoin: miter; stroke-linecap: square"/>
   </g>
   <g id="text_15">
    <!-- 145m rows (1/2/4/8/16 Nodes) -->
    <g style="fill: #0000ff" transform="translate(78.736989 272.873739) scale(0.1 -0.1)">
     <defs>
      <path id="DejaVuSans-6f" d="M 1959 3097 
Q 1497 3097 1228 2736 
Q 959 2375 959 1747 
Q 959 1119 1226 758 
Q 1494 397 1959 397 
Q 2419 397 2687 759 
Q 2956 1122 2956 1747 
Q 2956 2369 2687 2733 
Q 2419 3097 1959 3097 
z
M 1959 3584 
Q 2709 3584 3137 3096 
Q 3566 2609 3566 1747 
Q 3566 888 3137 398 
Q 2709 -91 1959 -91 
Q 1206 -91 779 398 
Q 353 888 353 1747 
Q 353 2609 779 3096 
Q 1206 3584 1959 3584 
z
" transform="scale(0.015625)"/>
      <path id="DejaVuSans-77" d="M 269 3500 
L 844 3500 
L 1563 769 
L 2278 3500 
L 2956 3500 
L 3675 769 
L 4391 3500 
L 4966 3500 
L 4050 0 
L 3372 0 
L 2619 2869 
L 1863 0 
L 1184 0 
L 269 3500 
z
" transform="scale(0.015625)"/>
      <path id="DejaVuSans-2f" d="M 1625 4666 
L 2156 4666 
L 531 -594 
L 0 -594 
L 1625 4666 
z
" transform="scale(0.015625)"/>
      <path id="DejaVuSans-4e" d="M 628 4666 
L 1478 4666 
L 3547 763 
L 3547 4666 
L 4159 4666 
L 4159 0 
L 3309 0 
L 1241 3903 
L 1241 0 
L 628 0 
L 628 4666 
z
" transform="scale(0.015625)"/>
      <path id="DejaVuSans-64" d="M 2906 2969 
L 2906 4863 
L 3481 4863 
L 3481 0 
L 2906 0 
L 2906 525 
Q 2725 213 2448 61 
Q 2172 -91 1784 -91 
Q 1150 -91 751 415 
Q 353 922 353 1747 
Q 353 2572 751 3078 
Q 1150 3584 1784 3584 
Q 2172 3584 2448 3432 
Q 2725 3281 2906 2969 
z
M 947 1747 
Q 947 1113 1208 752 
Q 1469 391 1925 391 
Q 2381 391 2643 752 
Q 2906 1113 2906 1747 
Q 2906 2381 2643 2742 
Q 2381 3103 1925 3103 
Q 1469 3103 1208 2742 
Q 947 2381 947 1747 
z
" transform="scale(0.015625)"/>
     </defs>
     <use xlink:href="#DejaVuSans-31"/>
     <use xlink:href="#DejaVuSans-34" x="63.623047"/>
     <use xlink:href="#DejaVuSans-35" x="127.246094"/>
     <use xlink:href="#DejaVuSans-6d" x="190.869141"/>
     <use xlink:href="#DejaVuSans-20" x="288.28125"/>
     <use xlink:href="#DejaVuSans-72" x="320.068359"/>
     <use xlink:href="#DejaVuSans-6f" x="358.931641"/>
     <use xlink:href="#DejaVuSans-77" x="420.113281"/>
     <use xlink:href="#DejaVuSans-73" x="501.900391"/>
     <use xlink:href="#DejaVuSans-20" x="554"/>
     <use xlink:href="#DejaVuSans-28" x="585.787109"/>
     <use xlink:href="#DejaVuSans-31" x="624.800781"/>
     <use xlink:href="#DejaVuSans-2f" x="688.423828"/>
     <use xlink:href="#DejaVuSans-32" x="722.115234"/>
     <use xlink:href="#DejaVuSans-2f" x="785.738281"/>
     <use xlink:href="#DejaVuSans-34" x="819.429688"/>
     <use xlink:href="#DejaVuSans-2f" x="883.052734"/>
     <use xlink:href="#DejaVuSans-38" x="916.744141"/>
     <use xlink:href="#DejaVuSans-2f" x="980.367188"/>
     <use xlink:href="#DejaVuSans-31" x="1014.058594"/>
     <use xlink:href="#DejaVuSans-36" x="1077.681641"/>
     <use xlink:href="#DejaVuSans-20" x="1141.304688"/>
     <use xlink:href="#DejaVuSans-4e" x="1173.091797"/>
     <use xlink:href="#DejaVuSans-6f" x="1247.896484"/>
     <use xlink:href="#DejaVuSans-64" x="1309.078125"/>
     <use xlink:href="#DejaVuSans-65" x="1372.554688"/>
     <use xlink:href="#DejaVuSans-73" x="1434.078125"/>
     <use xlink:href="#DejaVuSans-29" x="1486.177734"/>
    </g>
   </g>
   <g id="text_16">
    <!-- Strong Scaling of Join Operation -->
    <g transform="translate(140.472188 35.472) scale(0.12 -0.12)">
     <defs>
      <path id="DejaVuSans-53" d="M 3425 4513 
L 3425 3897 
Q 3066 4069 2747 4153 
Q 2428 4238 2131 4238 
Q 1616 4238 1336 4038 
Q 1056 3838 1056 3469 
Q 1056 3159 1242 3001 
Q 1428 2844 1947 2747 
L 2328 2669 
Q 3034 2534 3370 2195 
Q 3706 1856 3706 1288 
Q 3706 609 3251 259 
Q 2797 -91 1919 -91 
Q 1588 -91 1214 -16 
Q 841 59 441 206 
L 441 856 
Q 825 641 1194 531 
Q 1563 422 1919 422 
Q 2459 422 2753 634 
Q 3047 847 3047 1241 
Q 3047 1584 2836 1778 
Q 2625 1972 2144 2069 
L 1759 2144 
Q 1053 2284 737 2584 
Q 422 2884 422 3419 
Q 422 4038 858 4394 
Q 1294 4750 2059 4750 
Q 2388 4750 2728 4690 
Q 3069 4631 3425 4513 
z
" transform="scale(0.015625)"/>
      <path id="DejaVuSans-6e" d="M 3513 2113 
L 3513 0 
L 2938 0 
L 2938 2094 
Q 2938 2591 2744 2837 
Q 2550 3084 2163 3084 
Q 1697 3084 1428 2787 
Q 1159 2491 1159 1978 
L 1159 0 
L 581 0 
L 581 3500 
L 1159 3500 
L 1159 2956 
Q 1366 3272 1645 3428 
Q 1925 3584 2291 3584 
Q 2894 3584 3203 3211 
Q 3513 2838 3513 2113 
z
" transform="scale(0.015625)"/>
      <path id="DejaVuSans-63" d="M 3122 3366 
L 3122 2828 
Q 2878 2963 2633 3030 
Q 2388 3097 2138 3097 
Q 1578 3097 1268 2742 
Q 959 2388 959 1747 
Q 959 1106 1268 751 
Q 1578 397 2138 397 
Q 2388 397 2633 464 
Q 2878 531 3122 666 
L 3122 134 
Q 2881 22 2623 -34 
Q 2366 -91 2075 -91 
Q 1284 -91 818 406 
Q 353 903 353 1747 
Q 353 2603 823 3093 
Q 1294 3584 2113 3584 
Q 2378 3584 2631 3529 
Q 2884 3475 3122 3366 
z
" transform="scale(0.015625)"/>
      <path id="DejaVuSans-66" d="M 2375 4863 
L 2375 4384 
L 1825 4384 
Q 1516 4384 1395 4259 
Q 1275 4134 1275 3809 
L 1275 3500 
L 2222 3500 
L 2222 3053 
L 1275 3053 
L 1275 0 
L 697 0 
L 697 3053 
L 147 3053 
L 147 3500 
L 697 3500 
L 697 3744 
Q 697 4328 969 4595 
Q 1241 4863 1831 4863 
L 2375 4863 
z
" transform="scale(0.015625)"/>
      <path id="DejaVuSans-4a" d="M 628 4666 
L 1259 4666 
L 1259 325 
Q 1259 -519 939 -900 
Q 619 -1281 -91 -1281 
L -331 -1281 
L -331 -750 
L -134 -750 
Q 284 -750 456 -515 
Q 628 -281 628 325 
L 628 4666 
z
" transform="scale(0.015625)"/>
      <path id="DejaVuSans-4f" d="M 2522 4238 
Q 1834 4238 1429 3725 
Q 1025 3213 1025 2328 
Q 1025 1447 1429 934 
Q 1834 422 2522 422 
Q 3209 422 3611 934 
Q 4013 1447 4013 2328 
Q 4013 3213 3611 3725 
Q 3209 4238 2522 4238 
z
M 2522 4750 
Q 3503 4750 4090 4092 
Q 4678 3434 4678 2328 
Q 4678 1225 4090 567 
Q 3503 -91 2522 -91 
Q 1538 -91 948 565 
Q 359 1222 359 2328 
Q 359 3434 948 4092 
Q 1538 4750 2522 4750 
z
" transform="scale(0.015625)"/>
     </defs>
     <use xlink:href="#DejaVuSans-53"/>
     <use xlink:href="#DejaVuSans-74" x="63.476562"/>
     <use xlink:href="#DejaVuSans-72" x="102.685547"/>
     <use xlink:href="#DejaVuSans-6f" x="141.548828"/>
     <use xlink:href="#DejaVuSans-6e" x="202.730469"/>
     <use xlink:href="#DejaVuSans-67" x="266.109375"/>
     <use xlink:href="#DejaVuSans-20" x="329.585938"/>
     <use xlink:href="#DejaVuSans-53" x="361.373047"/>
     <use xlink:href="#DejaVuSans-63" x="424.849609"/>
     <use xlink:href="#DejaVuSans-61" x="479.830078"/>
     <use xlink:href="#DejaVuSans-6c" x="541.109375"/>
     <use xlink:href="#DejaVuSans-69" x="568.892578"/>
     <use xlink:href="#DejaVuSans-6e" x="596.675781"/>
     <use xlink:href="#DejaVuSans-67" x="660.054688"/>
     <use xlink:href="#DejaVuSans-20" x="723.53125"/>
     <use xlink:href="#DejaVuSans-6f" x="755.318359"/>
     <use xlink:href="#DejaVuSans-66" x="816.5"/>
     <use xlink:href="#DejaVuSans-20" x="851.705078"/>
     <use xlink:href="#DejaVuSans-4a" x="883.492188"/>
     <use xlink:href="#DejaVuSans-6f" x="912.984375"/>
     <use xlink:href="#DejaVuSans-69" x="974.166016"/>
     <use xlink:href="#DejaVuSans-6e" x="1001.949219"/>
     <use xlink:href="#DejaVuSans-20" x="1065.328125"/>
     <use xlink:href="#DejaVuSans-4f" x="1097.115234"/>
     <use xlink:href="#DejaVuSans-70" x="1175.826172"/>
     <use xlink:href="#DejaVuSans-65" x="1239.302734"/>
     <use xlink:href="#DejaVuSans-72" x="1300.826172"/>
     <use xlink:href="#DejaVuSans-61" x="1341.939453"/>
     <use xlink:href="#DejaVuSans-74" x="1403.21875"/>
     <use xlink:href="#DejaVuSans-69" x="1442.427734"/>
     <use xlink:href="#DejaVuSans-6f" x="1470.210938"/>
     <use xlink:href="#DejaVuSans-6e" x="1531.392578"/>
    </g>
   </g>
   <g id="legend_1">
    <g id="patch_7">
     <path d="M 214.33875 108.1845 
L 407.72 108.1845 
Q 409.72 108.1845 409.72 106.1845 
L 409.72 48.472 
Q 409.72 46.472 407.72 46.472 
L 214.33875 46.472 
Q 212.33875 46.472 212.33875 48.472 
L 212.33875 106.1845 
Q 212.33875 108.1845 214.33875 108.1845 
z
" style="fill: #ffffff; opacity: 0.8; stroke: #cccccc; stroke-linejoin: miter"/>
    </g>
    <g id="line2d_29">
     <path d="M 216.33875 54.570438 
L 226.33875 54.570438 
L 236.33875 54.570438 
" style="fill: none; stroke: #0000ff; stroke-width: 1.5; stroke-linecap: square"/>
     <g>
      <use xlink:href="#m6ac01031a3" x="226.33875" y="54.570438" style="fill: #0000ff; stroke: #0000ff"/>
     </g>
    </g>
    <g id="text_17">
     <!-- EC2 - 4 CPU/26 GB Memory -->
     <g transform="translate(244.33875 58.070438) scale(0.1 -0.1)">
      <defs>
       <path id="DejaVuSans-45" d="M 628 4666 
L 3578 4666 
L 3578 4134 
L 1259 4134 
L 1259 2753 
L 3481 2753 
L 3481 2222 
L 1259 2222 
L 1259 531 
L 3634 531 
L 3634 0 
L 628 0 
L 628 4666 
z
" transform="scale(0.015625)"/>
       <path id="DejaVuSans-43" d="M 4122 4306 
L 4122 3641 
Q 3803 3938 3442 4084 
Q 3081 4231 2675 4231 
Q 1875 4231 1450 3742 
Q 1025 3253 1025 2328 
Q 1025 1406 1450 917 
Q 1875 428 2675 428 
Q 3081 428 3442 575 
Q 3803 722 4122 1019 
L 4122 359 
Q 3791 134 3420 21 
Q 3050 -91 2638 -91 
Q 1578 -91 968 557 
Q 359 1206 359 2328 
Q 359 3453 968 4101 
Q 1578 4750 2638 4750 
Q 3056 4750 3426 4639 
Q 3797 4528 4122 4306 
z
" transform="scale(0.015625)"/>
       <path id="DejaVuSans-2d" d="M 313 2009 
L 1997 2009 
L 1997 1497 
L 313 1497 
L 313 2009 
z
" transform="scale(0.015625)"/>
       <path id="DejaVuSans-50" d="M 1259 4147 
L 1259 2394 
L 2053 2394 
Q 2494 2394 2734 2622 
Q 2975 2850 2975 3272 
Q 2975 3691 2734 3919 
Q 2494 4147 2053 4147 
L 1259 4147 
z
M 628 4666 
L 2053 4666 
Q 2838 4666 3239 4311 
Q 3641 3956 3641 3272 
Q 3641 2581 3239 2228 
Q 2838 1875 2053 1875 
L 1259 1875 
L 1259 0 
L 628 0 
L 628 4666 
z
" transform="scale(0.015625)"/>
       <path id="DejaVuSans-55" d="M 556 4666 
L 1191 4666 
L 1191 1831 
Q 1191 1081 1462 751 
Q 1734 422 2344 422 
Q 2950 422 3222 751 
Q 3494 1081 3494 1831 
L 3494 4666 
L 4128 4666 
L 4128 1753 
Q 4128 841 3676 375 
Q 3225 -91 2344 -91 
Q 1459 -91 1007 375 
Q 556 841 556 1753 
L 556 4666 
z
" transform="scale(0.015625)"/>
       <path id="DejaVuSans-47" d="M 3809 666 
L 3809 1919 
L 2778 1919 
L 2778 2438 
L 4434 2438 
L 4434 434 
Q 4069 175 3628 42 
Q 3188 -91 2688 -91 
Q 1594 -91 976 548 
Q 359 1188 359 2328 
Q 359 3472 976 4111 
Q 1594 4750 2688 4750 
Q 3144 4750 3555 4637 
Q 3966 4525 4313 4306 
L 4313 3634 
Q 3963 3931 3569 4081 
Q 3175 4231 2741 4231 
Q 1884 4231 1454 3753 
Q 1025 3275 1025 2328 
Q 1025 1384 1454 906 
Q 1884 428 2741 428 
Q 3075 428 3337 486 
Q 3600 544 3809 666 
z
" transform="scale(0.015625)"/>
       <path id="DejaVuSans-42" d="M 1259 2228 
L 1259 519 
L 2272 519 
Q 2781 519 3026 730 
Q 3272 941 3272 1375 
Q 3272 1813 3026 2020 
Q 2781 2228 2272 2228 
L 1259 2228 
z
M 1259 4147 
L 1259 2741 
L 2194 2741 
Q 2656 2741 2882 2914 
Q 3109 3088 3109 3444 
Q 3109 3797 2882 3972 
Q 2656 4147 2194 4147 
L 1259 4147 
z
M 628 4666 
L 2241 4666 
Q 2963 4666 3353 4366 
Q 3744 4066 3744 3513 
Q 3744 3084 3544 2831 
Q 3344 2578 2956 2516 
Q 3422 2416 3680 2098 
Q 3938 1781 3938 1306 
Q 3938 681 3513 340 
Q 3088 0 2303 0 
L 628 0 
L 628 4666 
z
" transform="scale(0.015625)"/>
       <path id="DejaVuSans-4d" d="M 628 4666 
L 1569 4666 
L 2759 1491 
L 3956 4666 
L 4897 4666 
L 4897 0 
L 4281 0 
L 4281 4097 
L 3078 897 
L 2444 897 
L 1241 4097 
L 1241 0 
L 628 0 
L 628 4666 
z
" transform="scale(0.015625)"/>
       <path id="DejaVuSans-79" d="M 2059 -325 
Q 1816 -950 1584 -1140 
Q 1353 -1331 966 -1331 
L 506 -1331 
L 506 -850 
L 844 -850 
Q 1081 -850 1212 -737 
Q 1344 -625 1503 -206 
L 1606 56 
L 191 3500 
L 800 3500 
L 1894 763 
L 2988 3500 
L 3597 3500 
L 2059 -325 
z
" transform="scale(0.015625)"/>
      </defs>
      <use xlink:href="#DejaVuSans-45"/>
      <use xlink:href="#DejaVuSans-43" x="63.183594"/>
      <use xlink:href="#DejaVuSans-32" x="133.007812"/>
      <use xlink:href="#DejaVuSans-20" x="196.630859"/>
      <use xlink:href="#DejaVuSans-2d" x="228.417969"/>
      <use xlink:href="#DejaVuSans-20" x="264.501953"/>
      <use xlink:href="#DejaVuSans-34" x="296.289062"/>
      <use xlink:href="#DejaVuSans-20" x="359.912109"/>
      <use xlink:href="#DejaVuSans-43" x="391.699219"/>
      <use xlink:href="#DejaVuSans-50" x="461.523438"/>
      <use xlink:href="#DejaVuSans-55" x="521.826172"/>
      <use xlink:href="#DejaVuSans-2f" x="595.019531"/>
      <use xlink:href="#DejaVuSans-32" x="628.710938"/>
      <use xlink:href="#DejaVuSans-36" x="692.333984"/>
      <use xlink:href="#DejaVuSans-20" x="755.957031"/>
      <use xlink:href="#DejaVuSans-47" x="787.744141"/>
      <use xlink:href="#DejaVuSans-42" x="865.234375"/>
      <use xlink:href="#DejaVuSans-20" x="933.837891"/>
      <use xlink:href="#DejaVuSans-4d" x="965.625"/>
      <use xlink:href="#DejaVuSans-65" x="1051.904297"/>
      <use xlink:href="#DejaVuSans-6d" x="1113.427734"/>
      <use xlink:href="#DejaVuSans-6f" x="1210.839844"/>
      <use xlink:href="#DejaVuSans-72" x="1272.021484"/>
      <use xlink:href="#DejaVuSans-79" x="1313.134766"/>
     </g>
    </g>
    <g id="line2d_30">
     <path d="M 216.33875 69.248563 
L 226.33875 69.248563 
L 236.33875 69.248563 
" style="fill: none; stroke: #008000; stroke-width: 1.5; stroke-linecap: square"/>
     <g>
      <use xlink:href="#m268e5d3b18" x="226.33875" y="69.248563" style="fill: #008000; stroke: #008000"/>
     </g>
    </g>
    <g id="text_18">
     <!-- EC2 - 16 CPU/28 GB Memory -->
     <g transform="translate(244.33875 72.748563) scale(0.1 -0.1)">
      <use xlink:href="#DejaVuSans-45"/>
      <use xlink:href="#DejaVuSans-43" x="63.183594"/>
      <use xlink:href="#DejaVuSans-32" x="133.007812"/>
      <use xlink:href="#DejaVuSans-20" x="196.630859"/>
      <use xlink:href="#DejaVuSans-2d" x="228.417969"/>
      <use xlink:href="#DejaVuSans-20" x="264.501953"/>
      <use xlink:href="#DejaVuSans-31" x="296.289062"/>
      <use xlink:href="#DejaVuSans-36" x="359.912109"/>
      <use xlink:href="#DejaVuSans-20" x="423.535156"/>
      <use xlink:href="#DejaVuSans-43" x="455.322266"/>
      <use xlink:href="#DejaVuSans-50" x="525.146484"/>
      <use xlink:href="#DejaVuSans-55" x="585.449219"/>
      <use xlink:href="#DejaVuSans-2f" x="658.642578"/>
      <use xlink:href="#DejaVuSans-32" x="692.333984"/>
      <use xlink:href="#DejaVuSans-38" x="755.957031"/>
      <use xlink:href="#DejaVuSans-20" x="819.580078"/>
      <use xlink:href="#DejaVuSans-47" x="851.367188"/>
      <use xlink:href="#DejaVuSans-42" x="928.857422"/>
      <use xlink:href="#DejaVuSans-20" x="997.460938"/>
      <use xlink:href="#DejaVuSans-4d" x="1029.248047"/>
      <use xlink:href="#DejaVuSans-65" x="1115.527344"/>
      <use xlink:href="#DejaVuSans-6d" x="1177.050781"/>
      <use xlink:href="#DejaVuSans-6f" x="1274.462891"/>
      <use xlink:href="#DejaVuSans-72" x="1335.644531"/>
      <use xlink:href="#DejaVuSans-79" x="1376.757812"/>
     </g>
    </g>
    <g id="line2d_31">
     <path d="M 216.33875 83.926688 
L 226.33875 83.926688 
L 236.33875 83.926688 
" style="fill: none; stroke: #ff0000; stroke-width: 1.5; stroke-linecap: square"/>
     <g>
      <use xlink:href="#mdc8881d7ae" x="226.33875" y="83.926688" style="fill: #ff0000; stroke: #ff0000"/>
     </g>
    </g>
    <g id="text_19">
     <!-- Fargate - 4 CPU/26 GB Memory -->
     <g transform="translate(244.33875 87.426688) scale(0.1 -0.1)">
      <defs>
       <path id="DejaVuSans-46" d="M 628 4666 
L 3309 4666 
L 3309 4134 
L 1259 4134 
L 1259 2759 
L 3109 2759 
L 3109 2228 
L 1259 2228 
L 1259 0 
L 628 0 
L 628 4666 
z
" transform="scale(0.015625)"/>
      </defs>
      <use xlink:href="#DejaVuSans-46"/>
      <use xlink:href="#DejaVuSans-61" x="48.394531"/>
      <use xlink:href="#DejaVuSans-72" x="109.673828"/>
      <use xlink:href="#DejaVuSans-67" x="149.037109"/>
      <use xlink:href="#DejaVuSans-61" x="212.513672"/>
      <use xlink:href="#DejaVuSans-74" x="273.792969"/>
      <use xlink:href="#DejaVuSans-65" x="313.001953"/>
      <use xlink:href="#DejaVuSans-20" x="374.525391"/>
      <use xlink:href="#DejaVuSans-2d" x="406.3125"/>
      <use xlink:href="#DejaVuSans-20" x="442.396484"/>
      <use xlink:href="#DejaVuSans-34" x="474.183594"/>
      <use xlink:href="#DejaVuSans-20" x="537.806641"/>
      <use xlink:href="#DejaVuSans-43" x="569.59375"/>
      <use xlink:href="#DejaVuSans-50" x="639.417969"/>
      <use xlink:href="#DejaVuSans-55" x="699.720703"/>
      <use xlink:href="#DejaVuSans-2f" x="772.914062"/>
      <use xlink:href="#DejaVuSans-32" x="806.605469"/>
      <use xlink:href="#DejaVuSans-36" x="870.228516"/>
      <use xlink:href="#DejaVuSans-20" x="933.851562"/>
      <use xlink:href="#DejaVuSans-47" x="965.638672"/>
      <use xlink:href="#DejaVuSans-42" x="1043.128906"/>
      <use xlink:href="#DejaVuSans-20" x="1111.732422"/>
      <use xlink:href="#DejaVuSans-4d" x="1143.519531"/>
      <use xlink:href="#DejaVuSans-65" x="1229.798828"/>
      <use xlink:href="#DejaVuSans-6d" x="1291.322266"/>
      <use xlink:href="#DejaVuSans-6f" x="1388.734375"/>
      <use xlink:href="#DejaVuSans-72" x="1449.916016"/>
      <use xlink:href="#DejaVuSans-79" x="1491.029297"/>
     </g>
    </g>
    <g id="line2d_32">
     <path d="M 216.33875 98.604813 
L 226.33875 98.604813 
L 236.33875 98.604813 
" style="fill: none; stroke: #ffa500; stroke-width: 1.5; stroke-linecap: square"/>
     <g>
      <use xlink:href="#m151b9f3d92" x="226.33875" y="98.604813" style="fill: #ffa500; stroke: #ffa500"/>
     </g>
    </g>
    <g id="text_20">
     <!-- Fargate - 16 CPU/28 GB Memory -->
     <g transform="translate(244.33875 102.104813) scale(0.1 -0.1)">
      <use xlink:href="#DejaVuSans-46"/>
      <use xlink:href="#DejaVuSans-61" x="48.394531"/>
      <use xlink:href="#DejaVuSans-72" x="109.673828"/>
      <use xlink:href="#DejaVuSans-67" x="149.037109"/>
      <use xlink:href="#DejaVuSans-61" x="212.513672"/>
      <use xlink:href="#DejaVuSans-74" x="273.792969"/>
      <use xlink:href="#DejaVuSans-65" x="313.001953"/>
      <use xlink:href="#DejaVuSans-20" x="374.525391"/>
      <use xlink:href="#DejaVuSans-2d" x="406.3125"/>
      <use xlink:href="#DejaVuSans-20" x="442.396484"/>
      <use xlink:href="#DejaVuSans-31" x="474.183594"/>
      <use xlink:href="#DejaVuSans-36" x="537.806641"/>
      <use xlink:href="#DejaVuSans-20" x="601.429688"/>
      <use xlink:href="#DejaVuSans-43" x="633.216797"/>
      <use xlink:href="#DejaVuSans-50" x="703.041016"/>
      <use xlink:href="#DejaVuSans-55" x="763.34375"/>
      <use xlink:href="#DejaVuSans-2f" x="836.537109"/>
      <use xlink:href="#DejaVuSans-32" x="870.228516"/>
      <use xlink:href="#DejaVuSans-38" x="933.851562"/>
      <use xlink:href="#DejaVuSans-20" x="997.474609"/>
      <use xlink:href="#DejaVuSans-47" x="1029.261719"/>
      <use xlink:href="#DejaVuSans-42" x="1106.751953"/>
      <use xlink:href="#DejaVuSans-20" x="1175.355469"/>
      <use xlink:href="#DejaVuSans-4d" x="1207.142578"/>
      <use xlink:href="#DejaVuSans-65" x="1293.421875"/>
      <use xlink:href="#DejaVuSans-6d" x="1354.945312"/>
      <use xlink:href="#DejaVuSans-6f" x="1452.357422"/>
      <use xlink:href="#DejaVuSans-72" x="1513.539062"/>
      <use xlink:href="#DejaVuSans-79" x="1554.652344"/>
     </g>
    </g>
   </g>
  </g>
 </g>
 <defs>
  <clipPath id="p855b21aba5">
   <rect x="57.6" y="41.472" width="357.12" height="266.112"/>
  </clipPath>
 </defs>
</svg>
