<svg version="1.1" viewBox="0.0 0.0 467.0 306.0" fill="none" stroke="none" stroke-linecap="square" stroke-miterlimit="10" xmlns:xlink="http://www.w3.org/1999/xlink" xmlns="http://www.w3.org/2000/svg"><clipPath id="p.0"><path d="m0 0l467.0 0l0 306.0l-467.0 0l0 -306.0z" clip-rule="nonzero"/></clipPath><g clip-path="url(#p.0)"><path fill="#000000" fill-opacity="0.0" d="m0 0l467.0 0l0 306.0l-467.0 0z" fill-rule="evenodd"/><path fill="#000000" fill-opacity="0.0" d="m40.0 87.38845l0 0c0 -19.23864 15.596001 -34.834644 34.83465 -34.834644l314.3307 0c9.238739 0 18.09906 3.6700668 24.631836 10.202831c6.5327454 6.5327606 10.20282 15.393089 10.20282 24.631813l0 139.3386c0 19.238647 -15.596008 34.83464 -34.834656 34.83464l-314.3307 0c-19.238647 0 -34.83465 -15.595993 -34.83465 -34.83464z" fill-rule="evenodd"/><path stroke="#134f5c" stroke-width="8.0" stroke-linejoin="round" stroke-linecap="butt" d="m40.0 87.38845l0 0c0 -19.23864 15.596001 -34.834644 34.83465 -34.834644l314.3307 0c9.238739 0 18.09906 3.6700668 24.631836 10.202831c6.5327454 6.5327606 10.20282 15.393089 10.20282 24.631813l0 139.3386c0 19.238647 -15.596008 34.83464 -34.834656 34.83464l-314.3307 0c-19.238647 0 -34.83465 -15.595993 -34.83465 -34.83464z" fill-rule="evenodd"/><g filter="url(#shadowFilter-p.1)"><use xlink:href="#p.1" transform="matrix(1.0 0.0 0.0 1.0 0.0 2.0)"/></g><defs><filter id="shadowFilter-p.1" filterUnits="userSpaceOnUse"><feGaussianBlur in="SourceAlpha" stdDeviation="2.0" result="blur"/><feComponentTransfer in="blur" color-interpolation-filters="sRGB"><feFuncR type="linear" slope="0" intercept="0.0"/><feFuncG type="linear" slope="0" intercept="0.0"/><feFuncB type="linear" slope="0" intercept="0.0"/><feFuncA type="linear" slope="0.5" intercept="0"/></feComponentTransfer></filter></defs><g id="p.1"><path fill="#000000" fill-opacity="0.0" d="m24.503937 42.119423l394.99213 0l0 193.32285l-394.99213 0z" fill-rule="evenodd"/><path fill="#134f5c" d="m118.55495 127.46834q-5.65625 2.265625 -10.96875 3.375q-5.296875 1.109375 -11.03125 1.109375q-9.1875 0 -16.25 -2.703125q-7.0625 -2.703125 -11.921875 -8.03125q-4.84375 -5.34375 -7.34375 -13.25q-2.5 -7.921875 -2.5 -18.390625q0 -10.75 2.734375 -19.109375q2.734375 -8.375 7.8125 -14.125q5.078125 -5.765625 12.328125 -8.796875q7.265625 -3.03125 16.3125 -3.03125q2.921875 0 5.5 0.140625q2.578125 0.125 5.046875 0.484375q2.46875 0.359375 5.0 0.953125q2.546875 0.578125 5.28125 1.484375l0 15.890625q-5.53125 -2.609375 -10.546875 -3.703125q-5.015625 -1.109375 -9.109375 -1.109375q-6.0625 0 -10.359375 2.1875q-4.296875 2.171875 -7.0625 6.109375q-2.765625 3.9375 -4.0625 9.375q-1.296875 5.4375 -1.296875 11.9375q0 6.90625 1.328125 12.34375q1.328125 5.4375 4.125 9.21875q2.8125 3.765625 7.171875 5.75q4.359375 1.984375 10.34375 1.984375q2.15625 0 4.65625 -0.421875q2.515625 -0.421875 5.078125 -1.09375q2.578125 -0.6875 5.078125 -1.625q2.515625 -0.953125 4.65625 -1.9375l0 14.984375zm52.538803 -26.828125l0 30.140625l-16.28125 0l0 -30.015625l-27.65625 -55.078125l17.765625 0l12.5 26.3125l5.734375 12.890625l5.71875 -13.28125l13.09375 -25.921875l17.046875 0l-27.921875 54.953125z" fill-rule="nonzero"/><path fill="#76a5af" d="m274.80444 82.34334q9.3749695 9.375 18.74997 9.375l-3.90625 -65.625q-8.59375 1.5625 -14.8437195 7.8125q-8.59375 8.59375 -8.59375 24.21875q0 15.625 8.59375 24.21875zm60.15622 9.375q-10.15625 10.15625 -25.0 13.28125q0 25.0 -9.375 34.375q-8.59375 8.59375 -21.87497 8.59375q-11.71875 0 -18.75 -7.03125q-7.8125153 -7.8125 -8.593765 -18.75l15.625015 0q1.5625 11.71875 12.5 11.71875q5.4687195 0 9.3749695 -3.90625q5.46875 -5.46875 5.46875 -24.21875q-16.40622 -1.5625 -28.90622 -14.0625q-12.500015 -12.5 -12.500015 -33.59375q0 -19.53125 13.281265 -32.8125q10.15625 -10.15625 22.65622 -12.5q-0.78125 -25.0 9.375 -35.15625q8.59375 -8.59375 21.875 -8.59375q11.71875 0 20.3125 8.59375q5.46875 5.46875 6.25 16.40625l-15.625 0q-3.125 -10.9375 -13.28125 -10.9375q-4.6875 0 -7.8125 3.125q-5.46875 5.46875 -5.46875 25.78125q17.96875 1.5625 28.90625 12.5q12.5 12.5 12.5 33.59375q0 22.65625 -10.9375 33.59375zm-12.5 -58.59375q-8.59375 -8.59375 -17.1875 -7.8125l3.90625 65.625q7.8125 -0.78125 14.84375 -7.8125q7.8125 -7.8125 7.8125 -25.0q0 -15.625 -9.375 -25.0z" fill-rule="nonzero"/><path fill="#134f5c" d="m238.01965 306.78082l-22.78125 -50.78125l-4.6875 -10.9375l0 35.28125l0 26.4375l-14.578125 0l0 -85.09375l19.65625 0l23.234375 51.109375l4.109375 9.96875l0 -37.578125l0 -23.5l14.578125 0l0 85.09375l-19.53125 0z" fill-rule="nonzero"/></g><path fill="#000000" fill-opacity="0.0" d="m31.971128 41.67454l405.32285 0l0 233.4803l-405.32285 0z" fill-rule="evenodd"/></g></svg>